<svg width="176.18803100585936px" height="120.8px" xmlns="http://www.w3.org/2000/svg" viewBox="161.90598449707034 14.600000000000001 176.18803100585936 120.8" style="background: rgba(255, 255, 255, 0);" preserveAspectRatio="xMidYMid"><defs><filter id="editing-extrusion" x="-100%" y="-100%" width="300%" height="300%"><feFlood result="color1" flood-color="#80743a"></feFlood><feConvolveMatrix order="8,8" divisor="1" kernelMatrix="1 0 0 0 0 0 0 0 0 1 0 0 0 0 0 0 0 0 1 0 0 0 0 0 0 0 0 1 0 0 0 0 0 0 0 0 1 0 0 0 0 0 0 0 0 1 0 0 0 0 0 0 0 0 1 0 0 0 0 0 0 0 0 1" in="SourceAlpha" result="extrude"></feConvolveMatrix><feComposite in="color1" in2="extrude" result="comp-extrude" operator="in"></feComposite><feOffset dx="4" dy="4" in="comp-extrude" result="offset-extrude"></feOffset><feMerge><feMergeNode in="offset-extrude"></feMergeNode><feMergeNode in="SourceGraphic"></feMergeNode></feMerge></filter></defs><g filter="url(#editing-extrusion)"><g transform="translate(193.14848005771637, 97.4000015258789)"><path d="M34.50-13.25L34.50-13.25L34.50-13.25Q36.16-12.03 36.16-9.44L36.16-9.44L36.16-9.44Q36.16-6.85 35.04-5.02L35.04-5.02L35.04-5.02Q33.92-3.20 31.74-1.79L31.74-1.79L31.74-1.79Q27.07 1.22 18.91 1.22L18.91 1.22L18.91 1.22Q10.75 1.22 6.30-3.04L6.30-3.04L6.30-3.04Q1.86-7.30 1.86-14.85L1.86-14.85L1.86-14.85Q1.86-25.54 7.42-33.66L7.42-33.66L7.42-33.66Q11.65-39.68 19.20-42.24L19.20-42.24L19.20-42.24Q23.10-43.52 26.94-43.52L26.94-43.52L26.94-43.52Q30.78-43.52 33.15-43.01L33.15-43.01L33.15-43.01Q35.52-42.50 37.31-41.47L37.31-41.47L37.31-41.47Q41.22-39.23 41.22-35.65L41.22-35.65L41.22-35.65Q41.22-32.38 38.14-29.95L38.14-29.95L38.14-29.95Q35.33-27.78 33.02-27.78L33.02-27.78L33.02-27.78Q30.72-27.78 29.76-28.10L29.76-28.10L29.76-28.10Q30.02-30.40 30.02-31.90L30.02-31.90L30.02-31.90Q30.02-33.41 29.95-34.50L29.95-34.50L29.95-34.50Q29.89-35.58 29.57-36.61L29.57-36.61L29.57-36.61Q28.93-38.98 26.98-38.98L26.98-38.98L26.98-38.98Q25.02-38.98 23.07-37.15L23.07-37.15L23.07-37.15Q21.12-35.33 19.46-32.26L19.46-32.26L19.46-32.26Q15.68-25.28 15.68-17.02L15.68-17.02L15.68-17.02Q15.68-13.06 17.92-10.78L17.92-10.78L17.92-10.78Q20.16-8.51 24.96-8.51L24.96-8.51L24.96-8.51Q28.54-8.51 31.94-10.88L31.94-10.88L31.94-10.88Q33.41-11.90 34.50-13.25ZM66.43-29.57L66.43-29.57L66.43-29.57Q67.39-31.49 67.39-33.28L67.39-33.28L67.39-33.28Q67.39-35.07 67.20-36.06L67.20-36.06L67.20-36.06Q67.01-37.06 66.56-37.82L66.56-37.82L66.56-37.82Q65.60-39.49 63.68-39.49L63.68-39.49L63.68-39.49Q61.31-39.49 59.39-37.76L59.39-37.76L59.39-37.76Q57.34-35.97 57.34-33.15L57.34-33.15L57.34-33.15Q57.34-31.36 58.59-29.98L58.59-29.98L58.59-29.98Q59.84-28.61 61.76-27.33L61.76-27.33L61.76-27.33Q63.68-26.05 65.86-24.77L65.86-24.77L65.86-24.77Q68.03-23.49 69.95-21.95L69.95-21.95L69.95-21.95Q74.37-18.43 74.37-13.70L74.37-13.70L74.37-13.70Q74.37-10.50 72.67-7.78L72.67-7.78L72.67-7.78Q70.98-5.06 68.16-3.07L68.16-3.07L68.16-3.07Q62.02 1.28 53.89 1.28L53.89 1.28L53.89 1.28Q47.30 1.28 43.90-0.86L43.90-0.86L43.90-0.86Q40.51-3.01 40.51-6.27L40.51-6.27L40.51-6.27Q40.51-12.10 45.06-13.57L45.06-13.57L45.06-13.57Q46.34-14.02 48.29-14.02L48.29-14.02L48.29-14.02Q50.24-14.02 52.48-13.18L52.48-13.18L52.48-13.18Q51.46-10.56 51.46-8.19L51.46-8.19L51.46-8.19Q51.46-3.07 55.10-3.07L55.10-3.07L55.10-3.07Q57.47-3.07 59.42-4.80L59.42-4.80L59.42-4.80Q61.38-6.53 61.38-8.48L61.38-8.48L61.38-8.48Q61.38-10.43 60.13-11.84L60.13-11.84L60.13-11.84Q58.88-13.25 57.02-14.37L57.02-14.37L57.02-14.37Q55.17-15.49 53.02-16.58L53.02-16.58L53.02-16.58Q50.88-17.66 49.02-19.20L49.02-19.20L49.02-19.20Q44.67-22.72 44.67-28.35L44.67-28.35L44.67-28.35Q44.67-32 46.46-34.85L46.46-34.85L46.46-34.85Q48.26-37.70 51.14-39.62L51.14-39.62L51.14-39.62Q56.90-43.52 63.97-43.52L63.97-43.52L63.97-43.52Q71.04-43.52 74.46-41.41L74.46-41.41L74.46-41.41Q77.89-39.30 77.89-35.71L77.89-35.71L77.89-35.71Q77.89-32.58 75.46-30.59L75.46-30.59L75.46-30.59Q73.34-28.93 70.78-28.93L70.78-28.93L70.78-28.93Q68.22-28.93 66.43-29.57ZM106.56-9.86L106.56-9.86L106.56-9.86Q107.78-8.32 107.78-5.82L107.78-5.82L107.78-5.82Q107.78-2.37 105.22-0.54L105.22-0.54L105.22-0.54Q102.66 1.28 98.62 1.28L98.62 1.28L98.62 1.28Q96.32 1.28 92.80 0.77L92.80 0.77L92.80 0.77Q85.89-0.32 83.78-0.32L83.78-0.32L83.78-0.32Q81.66-0.32 80.83-0.22L80.83-0.22L80.83-0.22Q80-0.13 78.66 0L78.66 0L86.53-42.24L114.11-42.24L114.11-42.24Q114.11-38.34 112.22-36.29L112.22-36.29L112.22-36.29Q110.34-34.24 106.62-34.24L106.62-34.24L106.62-34.24Q102.91-34.24 99.14-35.97L99.14-35.97L97.15-24.77L108.54-24.77L108.54-24.77Q108.54-21.38 106.88-19.49L106.88-19.49L106.88-19.49Q105.22-17.60 102.43-17.60L102.43-17.60L102.43-17.60Q99.65-17.60 97.92-18.24L97.92-18.24L97.92-18.24Q96.19-18.88 96-19.07L96-19.07L93.70-6.98L93.70-6.98Q95.23-6.78 98.11-6.78L98.11-6.78L98.11-6.78Q103.04-6.78 106.56-9.86Z" fill="#f8f300"></path></g></g><style>text {
  font-size: 64px;
  font-family: Arial Black;
  dominant-baseline: central;
  text-anchor: middle;
}</style></svg>